<?xml version="1.0" encoding="UTF-8" standalone="no"?>
<!-- Created with Inkscape (http://www.inkscape.org/) -->

<svg
   xmlns:dc="http://purl.org/dc/elements/1.1/"
   xmlns:cc="http://creativecommons.org/ns#"
   xmlns:rdf="http://www.w3.org/1999/02/22-rdf-syntax-ns#"
   xmlns:svg="http://www.w3.org/2000/svg"
   xmlns="http://www.w3.org/2000/svg"
   xmlns:sodipodi="http://sodipodi.sourceforge.net/DTD/sodipodi-0.dtd"
   xmlns:inkscape="http://www.inkscape.org/namespaces/inkscape"
   id="svg3100"
   version="1.1"
   inkscape:version="0.49 r12742"
   width="229.99887"
   height="203.75"
   xml:space="preserve"
   sodipodi:docname="fb-dislike.svg"><metadata
     id="metadata3106"><rdf:RDF><cc:Work
         rdf:about=""><dc:format>image/svg+xml</dc:format><dc:type
           rdf:resource="http://purl.org/dc/dcmitype/StillImage" /><dc:title></dc:title></cc:Work></rdf:RDF></metadata><defs
     id="defs3104" /><sodipodi:namedview
     pagecolor="#ffffff"
     bordercolor="#666666"
     borderopacity="1"
     objecttolerance="10"
     gridtolerance="10"
     guidetolerance="10"
     inkscape:pageopacity="0"
     inkscape:pageshadow="2"
     inkscape:window-width="1598"
     inkscape:window-height="879"
     id="namedview3102"
     showgrid="false"
     inkscape:zoom="0.39584771"
     inkscape:cx="339.37374"
     inkscape:cy="98.526418"
     inkscape:window-x="0"
     inkscape:window-y="19"
     inkscape:window-maximized="0"
     inkscape:current-layer="g3108"
     fit-margin-top="10"
     fit-margin-left="10"
     fit-margin-right="10"
     fit-margin-bottom="10" /><g
     id="g3108"
     inkscape:groupmode="layer"
     inkscape:label="FreeVector-Facebook-Dislike-Button"
     transform="matrix(1.25,0,0,-1.25,-66.24375,403.318)"><g
       id="g3162"
       transform="translate(188.5293,184.3232)"><path
         d="m 0,0 -8.849,6.588 c 0,0 0.416,29.95 0,30.507 -0.416,0.552 7.486,3.603 7.486,3.603 l 1.363,-40.698 z"
         style="fill:#fde5ec;fill-opacity:1;fill-rule:nonzero;stroke:none"
         id="path3164"
         inkscape:connector-curvature="0" /></g><g
       id="g3166"
       transform="translate(104.9946,285.3389)"><path
         d="m 0,0 43.963,0.036 14.114,11.076 43.798,0.141 18.125,-17.077 0,16.225 -14.061,17.471 c 0,0 -51.682,-0.786 -51.542,0.046 0.14,0.832 -14.516,-11.602 -14.516,-11.602 l -39.881,0 0,-16.316 z"
         style="fill:#fde5ec;fill-opacity:1;fill-rule:nonzero;stroke:none"
         id="path3168"
         inkscape:connector-curvature="0" /></g><path
       d="m 108.995,225.654 -47,0 0,66 47,0 0,-66 z"
       style="fill:#b82234;fill-opacity:1;fill-rule:nonzero;stroke:none"
       id="path3174"
       inkscape:connector-curvature="0" /><path
       d="m 108.995,290.655 -47,0 0,19 47,0 0,-19 z"
       style="fill:#ef4642;fill-opacity:1;fill-rule:nonzero;stroke:none"
       id="path3176"
       inkscape:connector-curvature="0" /><g
       id="g3207"><g
         transform="translate(106.7231,238.9404)"
         id="g3170"><path
           inkscape:connector-curvature="0"
           id="path3172"
           style="fill:none;stroke:#993333;stroke-width:5;stroke-linecap:butt;stroke-linejoin:bevel;stroke-miterlimit:10;stroke-opacity:1;stroke-dasharray:none"
           d="m 0,0 c 0,0 17.94,2.203 27.875,-5.674 6.266,-4.97 14.479,-14.849 17.684,-22.476 3.204,-7.628 18.909,-40.636 18.909,-40.636 l 17.303,0 0,12.436 -3,9.609 0,31.955 30.792,0 10.208,4.504 0,67.081 -14.115,16.415 -52.667,0 -15.218,-11 -38.029,0 0.258,-62.214 z" /></g><path
         inkscape:connector-curvature="0"
         id="path3178"
         style="fill:none;stroke:#993333;stroke-width:5;stroke-linecap:butt;stroke-linejoin:bevel;stroke-miterlimit:10;stroke-opacity:1;stroke-dasharray:none"
         d="m 109.495,225.154 -46,0 0,86 46,0 0,-86 z" /></g></g></svg>